<svg width="75" height="75" viewBox="0 0 75 75" fill="none" xmlns="http://www.w3.org/2000/svg">
<path d="M63.3726 22.9293C76.5544 27.8073 76.5544 46.4516 63.3726 51.3296L61.9742 51.8472C57.2824 53.5834 53.5834 57.2824 51.8472 61.9742L51.3296 63.3726C46.4516 76.5544 27.8073 76.5544 22.9293 63.3726L22.4117 61.9742C20.6755 57.2824 16.9765 53.5834 12.2847 51.8472L10.8863 51.3296C-2.29547 46.4516 -2.29547 27.8073 10.8863 22.9293L12.2847 22.4117C16.9765 20.6755 20.6755 16.9765 22.4117 12.2847L22.9293 10.8863C27.8073 -2.29547 46.4516 -2.29547 51.3296 10.8863L51.8472 12.2847C53.5834 16.9765 57.2824 20.6755 61.9742 22.4117L63.3726 22.9293Z" stroke="black" stroke-width="2"/>
</svg>
