<svg width="51" height="51" viewBox="0 0 51 51" fill="none" xmlns="http://www.w3.org/2000/svg">
<path d="M14.9867 7.1826C18.5304 -2.3942 32.0757 -2.3942 35.6194 7.1826L35.9719 8.13521C37.086 11.1461 39.46 13.52 42.4709 14.6342L43.4235 14.9867C53.0003 18.5304 53.0003 32.0757 43.4235 35.6194L42.4709 35.9719C39.46 37.086 37.086 39.46 35.9719 42.4709L35.6194 43.4235C32.0757 53.0003 18.5304 53.0003 14.9867 43.4235L14.6342 42.4709C13.52 39.46 11.1461 37.086 8.13521 35.9719L7.1826 35.6194C-2.3942 32.0757 -2.3942 18.5304 7.1826 14.9867L8.13521 14.6342C11.1461 13.52 13.52 11.1461 14.6342 8.13521L14.9867 7.1826Z" fill="black"/>
</svg>
